<?xml version="1.0" encoding="UTF-8"?>
<svg version="1.1" xmlns="http://www.w3.org/2000/svg" width="81" height="80">
<path d="M0 0 C26.73 0 53.46 0 81 0 C81 26.4 81 52.8 81 80 C54.27 80 27.54 80 0 80 C0 53.6 0 27.2 0 0 Z " fill="#FDFDFE" transform="translate(0,0)"/>
<path d="M0 0 C6.24574997 3.44621329 10.35739621 7.69718862 12.625 14.5 C12.66454234 16.83299825 12.66901732 19.16708189 12.625 21.5 C9.325 21.5 6.025 21.5 2.625 21.5 C2.25375 20.2625 1.8825 19.025 1.5 17.75 C-0.17274236 13.35418867 -2.03520824 11.54707159 -6.375 9.5 C-10.6482363 8.27176442 -13.48838831 8.16542955 -17.6875 9.75 C-21.32067606 12.11578907 -22.9938307 13.35649209 -24.375 17.5 C-24.7911764 21.77381146 -24.85146722 25.40412539 -23.125 29.375 C-19.72952013 33.49808269 -16.4784281 34.99216897 -11.375 36.5 C-11.375 39.8 -11.375 43.1 -11.375 46.5 C-17.38038156 47.28331064 -20.9599579 45.59890084 -26.00390625 42.34375 C-31.20957235 38.29585148 -35.09392354 33.03348994 -36.375 26.5 C-37.08024243 19.34840101 -36.85017942 13.3439178 -32.375 7.5 C-22.97929691 -2.3689941 -12.97833137 -5.94772845 0 0 Z " fill="#6E80EA" transform="translate(48.375,16.5)"/>
<path d="M0 0 C3.3 0 6.6 0 10 0 C10.556875 1.4025 11.11375 2.805 11.6875 4.25 C13.5023927 8.30644439 15.09352719 10.67471856 19 13 C22.17921787 14.25556887 22.17921787 14.25556887 25 15 C25 18.3 25 21.6 25 25 C19.03480068 25.49709994 14.93492727 24.46123582 10 21 C4.40923675 15.85560507 0.23689355 10.34304838 -0.1875 2.5625 C-0.125625 1.716875 -0.06375 0.87125 0 0 Z " fill="#7283EB" transform="translate(37,38)"/>
</svg>
